# AST/ASF file generated using VICON BodyLanguage
# -----------------------------------------------
:version 1.10
:name VICON
:units
  mass 1.0
  length 0.45
  angle deg
:documentation
   .ast/.asf automatically generated from VICON data using
   VICON BodyBuilder and BodyLanguage model FoxedUp or BRILLIANT.MOD
:root
   order TX TY TZ RX RY RZ
   axis XYZ
   position 0 0 0  
   orientation 0 0 0 
:bonedata
  begin
     id 1 
     name lhipjoint
     direction 0.570549 -0.739093 0.358072 
     length 2.41801 
     axis 0 0 0  XYZ
  end
  begin
     id 2 
     name lfemur
     direction 0.34202 -0.939693 0  
     length 7.44434  
     axis 0 0 20  XYZ
    dof rx ry rz
    limits (-160.0 20.0)
           (-70.0 70.0)
           (-60.0 70.0)
  end
  begin
     id 3 
     name ltibia
     direction 0.34202 -0.939693 0   
     length 7.60047   
     axis 0 0 20   XYZ
    dof rx
    limits (-10.0 170.0)
  end
  begin
     id 4 
     name lfoot
     direction 0.0909041 -0.249757 0.964032   
     length 2.03437   
     axis -90 7.62852e-016 20   XYZ
    dof rx rz
    limits (-45.0 90.0)
           (-70.0 20.0)
  end
  begin
     id 5 
     name ltoes
     direction 1.53547e-011 -4.2174e-011 1   
     length 1.02054   
     axis -90 7.62852e-016 20   XYZ
    dof rx
    limits (-90.0 20.0)
  end
  begin
     id 6 
     name rhipjoint
     direction -0.558096 -0.746754 0.361784   
     length 2.3932  
     axis 0 0 0  XYZ 
  end
  begin
     id 7 
     name rfemur
     direction -0.34202 -0.939693 0   
     length 7.3886   
     axis 0 0 -20   XYZ
    dof rx ry rz
    limits (-160.0 20.0)
           (-70.0 70.0)
           (-70.0 60.0)
  end
  begin
     id 8 
     name rtibia
     direction -0.34202 -0.939693 0   
     length 7.4839   
     axis 0 0 -20   XYZ
    dof rx
    limits (-10.0 170.0)
 end
 begin
     id 9 
     name rfoot
     direction -0.114619 -0.314914 0.942174   
     length 2.25127  
     axis -90 -7.62852e-016 -20   XYZ
    dof rx rz
    limits (-45.0 90.0)
           (-20.0 70.0)
  end
  begin
     id 10 
     name rtoes
     direction -1.53518e-011 -4.21881e-011 1   
     length 1.11821   
     axis -90 -7.62852e-016 -20   XYZ
    dof rx
    limits (-90.0 20.0)
  end
  begin
     id 11 
     name lowerback
     direction -0.00902269 0.996426 -0.0839821   
     length 2.25052   
     axis 0 0 0   XYZ
    dof rx ry rz
    limits (-20.0 45.0)
           (-30.0 30.0)
           (-30.0 30.0)
  end
  begin
     id 12 
     name upperback
     direction 0.0370973 0.999169 -0.0168941   
     length 2.24876   
     axis 0 0 0   XYZ
    dof rx ry rz
    limits (-20.0 45.0)
           (-30.0 30.0)
           (-30.0 30.0)
  end
  begin
     id 13 
     name thorax
     direction 0.0402726 0.998931 0.0227027   
     length 2.26408   
     axis 0 0 0   XYZ
    dof rx ry rz
    limits (-20.0 45.0)
           (-30.0 30.0)
           (-30.0 30.0)
  end
  begin
     id 14 
     name lowerneck
     direction -0.0733697 0.98508 0.155675   
     length 1.58204   
     axis 0 0 0   XYZ
    dof rx ry rz
    limits (-20.0 45.0)
           (-30.0 30.0)
           (-30.0 30.0)
  end
  begin
     id 15 
     name upperneck
     direction 0.0426554 0.993501 -0.105526   
     length 1.61222   
     axis 0 0 0   XYZ
    dof rx ry rz
    limits (-20.0 45.0)
           (-30.0 30.0)
           (-30.0 30.0)
  end
  begin
     id 16
     name head
     direction 0.020792 0.998384 -0.0528868  
     length 1.61527  
     axis 0 0 0   XYZ
    dof rx ry rz
    limits (-20.0 45.0)
           (-30.0 30.0)
           (-30.0 30.0)
  end
  begin
     id 17 
     name lclavicle
     direction 0.967109 0.155462 -0.201325  
     length 3.59357  
     axis 0 0 0   XYZ
    dof ry rz
    limits (-20.0 10.0)
           (0.0 20.0)
  end
  begin
     id 18 
     name lhumerus
     direction 1 -4.48968e-011 2.38195e-027   
     length 5.38154   
     axis 180 -30 -90   XYZ
    dof rx ry rz
    limits (-60.0 90.0)
           (-90.0 90.0)
           (-90.0 90.0)
  end
  begin
     id 19
     name lradius
     direction 1 -4.48961e-011 4.85371e-027   
     length 3.33312   
     axis 180 -30 -90   XYZ
    dof rx
    limits (-10.0 170.0)
  end
  begin
     id 20
     name lwrist
     direction 1 -4.48961e-011 4.76515e-027   
     length 1.66656   
     axis -3.27502e-015 90 90   XYZ
    dof ry
    limits (-180.0 0.0)
 end
  begin
     id 21 
     name lhand
     direction 1 -4.48951e-011 9.53074e-027   
     length 0.710789   
     axis -6.08098e-015 90 90   XYZ
    dof rx rz
    limits (-90.0 90.0)
           (-45.0 45.0)
  end
  begin
     id 22 
     name lfingers
     direction 1 -4.48953e-011 1.90613e-026   
     length 0.573057   
     axis -1.21619e-014 90 90   XYZ
    dof rx
    limits (0.0 90.0)
  end
  begin
     id 23
     name lthumb
     direction 0.707107 -6.34973e-011 0.707107   
     length 0.822798   
     axis -90 45 -9.86923e-015   XYZ
    dof rx rz
    limits (-45.0 45.0)
           (-45.0 45.0)
  end
  begin
     id 24 
     name rclavicle
     direction -0.9585 0.265289 -0.104398   
     length 3.42039  
     axis 0 0 0   XYZ 
    dof ry rz
    limits (-10.0 20.0)
           (-20.0 0.0)
  end
  begin
     id 25 
     name rhumerus
     direction -1 -4.48977e-011 2.21478e-027  
     length 5.16954   
     axis 180 30 90   XYZ
    dof rx ry rz
    limits (-90.0 60.0)
           (-90.0 90.0)
           (-90.0 90.0)
  end
  begin
     id 26 
     name rradius
     direction -1 -4.48967e-011 5.63677e-027   
     length 3.38287   
     axis 180 30 90   XYZ
    dof rx
    limits (-10.0 170.0)
  end
  begin
     id 27 
     name rwrist
     direction -1 -4.48967e-011 4.76501e-027   
     length 1.69144   
     axis -3.27502e-015 -90 -90   XYZ
    dof ry
    limits (-180.0 0.0)
  end
  begin
     id 28
     name rhand
     direction -1 -4.48902e-011 9.53292e-027   
     length 0.817967   
     axis -6.08098e-015 -90 -90   XYZ
    dof rx rz
    limits (-90.0 90.0)
           (-45.0 45.0)
  end
  begin
     id 29
     name rfingers
     direction -1 -4.49012e-011 1.90561e-026   
     length 0.659466   
     axis -1.21619e-014 -90 -90   XYZ
    dof rx
    limits (0.0 90.0)
  end
  begin
     id 30
     name rthumb
     direction -0.707107 -6.34944e-011 0.707107   
     length 0.946865   
     axis -90 -45 9.86923e-015   XYZ
    dof rx rz
    limits (-45.0 45.0)
           (-45.0 45.0)
  end
:hierarchy
  begin
    root lhipjoint rhipjoint lowerback
    lhipjoint lfemur
    lfemur ltibia
    ltibia lfoot
    lfoot ltoes
    rhipjoint rfemur
    rfemur rtibia
    rtibia rfoot
    rfoot rtoes
    lowerback upperback
    upperback thorax
    thorax lowerneck lclavicle rclavicle
    lowerneck upperneck
    upperneck head
    lclavicle lhumerus
    lhumerus lradius
    lradius lwrist
    lwrist lhand lthumb
    lhand lfingers
    rclavicle rhumerus
    rhumerus rradius
    rradius rwrist
    rwrist rhand rthumb
    rhand rfingers
  end

#!OML:ASF F:\twosubjects\two\wednesday\Session 1\Justin1.ASF
:FULLY-SPECIFIED
:DEGREES
180
root 13.2114 17.8187 14.1615 2.04659 3.76845 5.25915
lowerback 1.59989 -0.491698 -7.93452
upperback 1.0452 -0.754714 0.564406
thorax 0.295695 -0.421542 5.04923
lowerneck -16.0922 -4.52245 -10.9091
upperneck 22.0227 -5.36374 7.87764
head 10.1991 -2.50189 3.88748
rclavicle 7.35503e-015 1.19271e-015
rhumerus -56.7865 45.0776 -97.1289
rradius 62.9691
rwrist -19.6883
rhand -11.363 20.1287
rfingers 7.12502
rthumb 14.6708 -9.33232
lclavicle 7.35503e-015 1.19271e-015
lhumerus -14.8334 -10.7226 77.2322
lradius 48.4147
lwrist -4.05327
lhand -0.037542 35.6367
lfingers 7.12502
lthumb 25.5544 63.9426
rfemur -29.4993 -3.64342 13.3358
rtibia 15.3019
rfoot -10.8186 -14.6327
rtoes -0.775309
lfemur 9.52014 0.345095 -27.3948
ltibia 14.2603
lfoot -15.2817 -4.15515
ltoes -13.6197
181
root 13.1877 17.8022 14.3475 2.16122 3.6663 5.07135
lowerback 1.76535 -0.437905 -7.85519
upperback 0.779235 -0.707146 0.689222
thorax -0.0797814 -0.374521 5.13813
lowerneck -15.6248 -4.45914 -11.2831
upperneck 21.9837 -5.33483 8.31469
head 10.1164 -2.48128 4.11707
rclavicle 1.57785e-014 -1.07344e-014
rhumerus -57.675 45.1655 -97.6625
rradius 63.0333
rwrist -19.6252
rhand -11.4491 20.4669
rfingers 7.12502
rthumb 14.5878 -9.00013
lclavicle 1.57785e-014 -1.07344e-014
lhumerus -15.0363 -11.0288 77.1356
lradius 48.9116
lwrist -3.93359
lhand 0.0283771 35.6376
lfingers 7.12502
lthumb 25.6176 63.9345
rfemur -29.5004 -2.35279 13.1551
rtibia 14.1854
rfoot -11.6248 -13.9856
rtoes -3.18216
lfemur 10.3656 0.295798 -27.0653
ltibia 13.6899
lfoot -15.1737 -3.97607
ltoes -17.1815
182
root 13.2044 17.7833 14.5246 1.95502 4.11694 4.99104
lowerback 2.08122 -0.519233 -7.21729
upperback 0.871548 -0.82771 0.54358
thorax -0.156345 -0.432615 4.631
lowerneck -15.5844 -4.47452 -11.0603
upperneck 21.984 -5.40306 8.24687
head 10.1073 -2.50229 4.04547
rclavicle 1.4238e-014 1.07344e-014
rhumerus -57.9048 45.0776 -97.8521
rradius 63.215
rwrist -19.7825
rhand -11.2728 20.9422
rfingers 7.12502
rthumb 14.7577 -8.51244
lclavicle 1.4238e-014 1.07344e-014
lhumerus -14.7662 -11.6867 76.8036
lradius 49.3099
lwrist -3.70389
lhand -0.305973 35.3372
lfingers 7.12502
lthumb 25.2973 63.6797
rfemur -29.1166 -4.74881 14.0146
rtibia 13.3632
rfoot -11.2061 -11.6746
rtoes -10.0955
lfemur 11.4676 0.00449693 -26.9295
ltibia 13.4918
lfoot -15.3478 -4.23764
ltoes -19.7538
183
root 13.1603 17.7785 14.705 2.01891 3.60478 3.70935
lowerback 1.69179 -0.317223 -6.20712
upperback 1.08141 -0.505975 0.888384
thorax 0.228721 -0.287893 4.40905
lowerneck -15.8527 -4.57641 -10.9001
upperneck 21.7478 -5.56737 8.32894
head 10.0892 -2.54787 4.01726
rclavicle 5.96354e-015 -1.11319e-014
rhumerus -57.5361 44.8201 -97.5591
rradius 63.4565
rwrist -19.5552
rhand -11.1161 21.2869
rfingers 7.12502
rthumb 14.9086 -8.15661
lclavicle 5.96354e-015 -1.11319e-014
lhumerus -14.1962 -12.1375 76.4922
lradius 49.5629
lwrist -3.65302
lhand -0.564504 35.3363
lfingers 7.12502
lthumb 25.0496 63.7136
rfemur -29.2341 -3.12726 15.4437
rtibia 13.196
rfoot -11.3744 -11.9828
rtoes -14.1406
lfemur 11.9423 0.0687159 -25.292
ltibia 13.297
lfoot -15.0508 -4.618
ltoes -19.1555
184
root 13.1435 17.7582 14.8866 2.05703 3.34503 3.62678
lowerback 1.73179 -0.28434 -6.2038
upperback 1.04438 -0.465809 0.986825
thorax 0.163997 -0.265084 4.50952
lowerneck -16.0309 -4.59434 -10.7837
upperneck 21.8385 -5.55785 8.12075
head 10.1449 -2.55353 3.92358
rclavicle 9.98893e-015 -2.38542e-015
rhumerus -57.8565 44.9073 -97.6773
rradius 63.7553
rwrist -19.2381
rhand -10.9093 20.9185
rfingers 7.12502
rthumb 15.1079 -8.51015
lclavicle 9.98893e-015 -2.38542e-015
lhumerus -14.189 -12.0706 76.3981
lradius 49.8276
lwrist -3.7096
lhand -0.320342 35.7969
lfingers 7.12502
lthumb 25.2835 64.1414
rfemur -29.4191 -3.39251 16.0253
rtibia 13.5664
rfoot -10.5005 -10.8271
rtoes -13.1957
lfemur 12.4932 -0.128072 -25.1355
ltibia 13.3099
lfoot -14.7364 -4.75397
ltoes -19.7785
185
root 13.1377 17.7392 15.0778 1.95082 3.28052 3.70864
lowerback 1.8629 -0.318294 -6.19398
upperback 1.06341 -0.519108 0.99084
thorax 0.116635 -0.290655 4.50986
lowerneck -15.6735 -4.49724 -10.7148
upperneck 21.648 -5.43089 7.9763
head 9.98878 -2.51203 3.87724
rclavicle 3.97569e-016 1.82882e-014
rhumerus -58.1674 45.4437 -98.009
rradius 63.8291
rwrist -19.2934
rhand -10.7455 20.4253
rfingers 7.12502
rthumb 15.2656 -8.99142
lclavicle 3.97569e-016 1.82882e-014
lhumerus -14.3065 -12.0609 76.2267
lradius 50.2106
lwrist -3.56596
lhand -0.0215612 35.9474
lfingers 7.12502
lthumb 25.5697 64.2512
rfemur -29.5568 -4.50146 16.598
rtibia 14.4793
rfoot -9.44655 -9.05673
rtoes -10.4812
lfemur 13.2321 -0.448344 -25.2474
ltibia 13.5041
lfoot -14.5433 -4.696
ltoes -22.1242
186
root 13.12 17.7198 15.2679 1.79867 2.96683 3.5655
lowerback 2.02169 -0.194897 -5.93167
upperback 1.1484 -0.358446 0.940647
thorax 0.0927605 -0.210217 4.30761
lowerneck -15.2001 -4.39962 -10.7554
upperneck 21.2896 -5.37847 8.24046
head 9.77443 -2.47051 3.98382
rclavicle 1.2921e-015 -1.07344e-014
rhumerus -58.1167 45.6225 -98.2391
rradius 63.7014
rwrist -19.3118
rhand -10.7236 20.5249
rfingers 7.12502
rthumb 15.2868 -8.89013
lclavicle 1.2921e-015 -1.07344e-014
lhumerus -14.3871 -12.2331 75.9715
lradius 50.6783
lwrist -3.52643
lhand -0.0909769 35.5651
lfingers 7.12502
lthumb 25.5032 63.8784
rfemur -30.0828 -5.15088 17.4343
rtibia 16.4202
rfoot -8.7684 -7.62582
rtoes -11.3331
lfemur 14.1805 -0.46664 -25.0282
ltibia 13.1885
lfoot -14.0599 -4.8321
ltoes -23.644
